<svg xmlns="http://www.w3.org/2000/svg" width="16" height="16"><path data-name="Path 6830" d="M16 8A8 8 0 010 8l8-8a8 8 0 018 8z" fill="#0052b4"/><g data-name="Group 5773" fill="#f0f0f0"><path data-name="Path 6832" d="M7.979 8H8v-.021z"/><path data-name="Path 6833" d="M8 4.174V-.001a8 8 0 00-8 8h4.174V5.65l2.35 2.349h1.455L8 7.979V6.524l-2.35-2.35z"/></g><g data-name="Group 5774" fill="#d80027"><path data-name="Path 6834" d="M4.047 1.043a8.038 8.038 0 00-3 3v3.953h2.087v-4.87h4.87V1.043z"/><path data-name="Path 6835" d="M8 7.016L5.158 4.174h-.984L8 8z"/></g><g data-name="Group 5775" fill="#f0f0f0"><path data-name="Path 6836" d="M4.829 9.391l.439.918.991-.229-.444.916.8.632-.993.224v1.018l-.794-.637-.799.636v-1.018l-.993-.224.8-.632-.444-.916.992.229z"/><path data-name="Path 6837" d="M11.978 11.13l.22.459.5-.115-.222.458.4.316-.5.112v.509l-.4-.318-.4.318v-.513l-.5-.112.4-.316-.222-.458.5.115z"/><path data-name="Path 6838" d="M9.936 6.261l.219.459.5-.115-.222.458.4.316-.5.112V8l-.4-.318-.4.318v-.509l-.5-.112.4-.316-.222-.458.5.115z"/><path data-name="Path 6839" d="M11.978 3.474l.22.459.5-.115-.222.458.4.316-.5.112v.509l-.4-.318-.4.318v-.509l-.5-.112.4-.316-.222-.458.5.115z"/><path data-name="Path 6840" d="M13.762 5.565l.22.459.5-.115-.222.458.4.316-.5.112v.509l-.4-.318-.4.318v-.509l-.5-.112.4-.316-.222-.458.5.115z"/><path data-name="Path 6841" d="M12.487 8l.173.531h.559l-.452.329.173.531-.452-.328-.452.328.173-.531-.452-.329h.559z"/></g></svg>