<svg xmlns="http://www.w3.org/2000/svg" width="24" height="24"><circle data-name="Ellipse 7" cx="12" cy="12" r="12" fill="#f0f0f0"/><g data-name="Group 5777" fill="#0052b4"><path data-name="Path 6847" d="M2.477 4.687A11.939 11.939 0 00.413 8.856h6.233z"/><path data-name="Path 6848" d="M23.551 8.856a11.941 11.941 0 00-2.064-4.169l-4.174 4.169z"/><path data-name="Path 6849" d="M.413 15.108a11.94 11.94 0 002.064 4.169l4.169-4.169z"/><path data-name="Path 6850" d="M19.277 2.477A11.938 11.938 0 0015.108.413v6.233z"/><path data-name="Path 6851" d="M4.687 21.487a11.94 11.94 0 004.169 2.064v-6.238z"/><path data-name="Path 6852" d="M8.856.413a11.94 11.94 0 00-4.169 2.064l4.169 4.169z"/><path data-name="Path 6853" d="M15.108 23.551a11.94 11.94 0 004.169-2.064l-4.169-4.174z"/><path data-name="Path 6854" d="M17.313 15.108l4.169 4.169a11.941 11.941 0 002.064-4.169z"/></g><g data-name="Group 5778" fill="#d80027"><path data-name="Path 6855" d="M23.863 10.419H13.545V.1a12.092 12.092 0 00-3.126 0v10.319H.1a12.092 12.092 0 000 3.126h10.319v10.318a12.093 12.093 0 003.126 0V13.545h10.318a12.093 12.093 0 000-3.126z"/><path data-name="Path 6856" d="M15.108 15.108l5.347 5.347q.369-.369.7-.769l-4.578-4.578h-1.474z"/><path data-name="Path 6857" d="M8.856 15.108l-5.347 5.347q.369.369.769.7l4.578-4.578z"/><path data-name="Path 6858" d="M8.856 8.856L3.509 3.509q-.369.369-.7.769l4.578 4.578H8.86z"/><path data-name="Path 6859" d="M15.108 8.856l5.347-5.347q-.369-.369-.769-.7l-4.578 4.578z"/></g></svg>