<svg xmlns="http://www.w3.org/2000/svg" width="16" height="16"><circle data-name="Ellipse 6" cx="8" cy="8" r="8" fill="#f0f0f0"/><g data-name="Group 5776" fill="#d80027"><path data-name="Path 6842" d="M7.653 7.996h8.348a8.012 8.012 0 00-.276-2.087H7.653z"/><path data-name="Path 6843" d="M7.653 3.826h7.174a8.043 8.043 0 00-1.846-2.087H7.653z"/><path data-name="Path 6844" d="M8.001 16a7.965 7.965 0 004.98-1.739h-9.96A7.965 7.965 0 008.001 16z"/><path data-name="Path 6845" d="M1.175 12.174h13.651a7.951 7.951 0 00.9-2.087H.276a7.951 7.951 0 00.899 2.087z"/></g><path data-name="Path 6846" d="M3.706 1.249h.729l-.678.493.259.8-.678-.493-.678.493.224-.689A8.044 8.044 0 001.332 3.58h.234l-.432.314q-.1.168-.194.342l.206.634-.384-.28q-.143.3-.262.621l.227.7h.838L.887 6.4l.259.8-.678-.493L.062 7A8.077 8.077 0 000 8h8V0a7.962 7.962 0 00-4.294 1.249zm.31 5.951l-.678-.493-.679.493.259-.8-.678-.49h.838l.259-.8.259.8h.838l-.677.49zm-.259-3.128l.259.8-.678-.493-.678.493.259-.8-.679-.492h.838l.259-.8.259.8h.838zM6.885 7.2l-.678-.493-.678.493.259-.8-.678-.49h.838l.259-.8.259.8H7.3l-.674.49zm-.259-3.128l.259.8-.678-.493-.678.493.259-.8-.678-.492h.838l.259-.8.259.8H7.3zm0-2.33l.259.8-.678-.493-.678.493.259-.8-.678-.493h.838l.259-.8.259.8H7.3z" fill="#0052b4"/></svg>